<?xml version="1.0" encoding="iso-8859-1"?>
<!-- Generator: Adobe Illustrator 18.0.0, SVG Export Plug-In . SVG Version: 6.00 Build 0)  -->
<!DOCTYPE svg PUBLIC "-//W3C//DTD SVG 1.1//EN" "http://www.w3.org/Graphics/SVG/1.1/DTD/svg11.dtd">
<svg xmlns="http://www.w3.org/2000/svg" xmlns:xlink="http://www.w3.org/1999/xlink" version="1.1" id="Capa_1" x="0px" y="0px" viewBox="0 0 459.07 459.07" style="enable-background:new 0 0 459.07 459.07;" xml:space="preserve" width="512px" height="512px">
<path d="M430.69,201.155c-10.37,0-19.45,5.57-24.4,13.88h-12.68c0.032,0.365,0.055,0.733,0.084,1.099  c-2.897-35.809-17.294-68.419-39.49-94.119c0.521,0.601,1.043,1.201,1.555,1.81l9.02-9.02c9.38,2.37,19.73-0.1,27.06-7.44  c11.08-11.08,11.08-29.05,0-40.13c-11.08-11.09-29.05-11.09-40.13,0c-7.34,7.33-9.81,17.69-7.44,27.06l-9.02,9.03  c0.382,0.321,0.757,0.651,1.136,0.975c-25.562-21.841-57.861-36.01-93.305-38.909c0.319,0.026,0.64,0.045,0.959,0.073v-12.69  c8.31-4.95,13.88-14.02,13.88-24.39c0-15.68-12.71-28.38-28.38-28.38c-15.68,0-28.38,12.7-28.38,28.38  c0,10.37,5.57,19.44,13.88,24.39v12.69c0.303-0.027,0.607-0.045,0.91-0.07c-35.25,2.892-67.386,16.932-92.877,38.579  c0.253-0.215,0.502-0.435,0.757-0.649l-9.03-9.03c2.38-9.37-0.1-19.73-7.43-27.06c-11.09-11.09-29.05-11.09-40.14,0  c-11.08,11.08-11.08,29.05,0,40.13c7.34,7.34,17.69,9.81,27.06,7.44l9.03,9.03c0.235-0.281,0.478-0.555,0.714-0.833  c-21.779,25.618-35.875,57.957-38.681,93.428c0.037-0.464,0.066-0.931,0.107-1.394H52.78c-4.95-8.31-14.02-13.88-24.4-13.88  c-15.67,0-28.38,12.71-28.38,28.38s12.71,28.38,28.38,28.38c10.38,0,19.44-5.57,24.39-13.88h12.69  c-0.04-0.459-0.069-0.921-0.106-1.38c2.798,35.341,16.804,67.571,38.45,93.143c-0.157-0.185-0.318-0.367-0.474-0.553l-9.03,9.03  c-9.38-2.38-19.73,0.09-27.07,7.43c-11.08,11.08-11.08,29.05,0,40.14c11.09,11.08,29.05,11.08,40.14,0  c7.33-7.34,9.81-17.69,7.43-27.06l9.03-9.03c-0.448-0.376-0.888-0.762-1.332-1.143c25.737,22.058,58.332,36.331,94.102,39.123  c-0.52-0.041-1.041-0.074-1.56-0.12v12.68c-8.31,4.95-13.88,14.02-13.88,24.4c0,15.67,12.7,28.37,28.38,28.37  c15.67,0,28.38-12.7,28.38-28.37c0-10.38-5.57-19.45-13.88-24.4v-12.68c-0.535,0.047-1.073,0.082-1.609,0.123  c35.734-2.78,68.299-17.019,94.029-39.029c-0.407,0.348-0.81,0.702-1.22,1.046l9.03,9.03c-2.37,9.37,0.1,19.72,7.44,27.06  c11.08,11.08,29.05,11.08,40.13,0c11.08-11.09,11.08-29.06,0-40.14c-7.34-7.34-17.69-9.81-27.07-7.43l-9.02-9.02  c-0.481,0.573-0.973,1.136-1.461,1.703c22.145-25.682,36.509-58.249,39.405-94.008c-0.029,0.361-0.052,0.724-0.083,1.085h12.69  c4.95,8.31,14.02,13.88,24.39,13.88c15.67,0,28.38-12.71,28.38-28.38S446.36,201.155,430.69,201.155z M236.72,96.025  c-2.377-0.126-4.771-0.19-7.18-0.19c-2.415,0-4.815,0.064-7.198,0.191c2.383-0.127,4.781-0.195,7.195-0.195  C231.947,95.831,234.341,95.899,236.72,96.025z M278.15,158.655l0.88,0.88l-27.02,27.03c0.134,0.07,0.264,0.147,0.397,0.218  c-3.335-1.791-6.9-3.205-10.641-4.181c0.765,0.199,1.525,0.408,2.275,0.643v-38.2h1.25c8,0,14.5-6.5,14.5-14.5  c0-8.01-6.5-14.5-14.5-14.5h-1.25V96.62c26.015,2.819,49.811,13.131,69.188,28.727l-13.688,13.688l-0.89-0.89  c-5.66-5.66-14.84-5.66-20.5,0C272.48,143.805,272.48,152.995,278.15,158.655z M262.235,193.753  c1.082,0.989,2.119,2.026,3.108,3.109C264.354,195.779,263.317,194.742,262.235,193.753z M265.311,262.243  c-0.98,1.071-2.007,2.097-3.077,3.077C263.305,264.341,264.332,263.314,265.311,262.243z M261.889,193.444  c-0.423-0.379-0.852-0.751-1.288-1.116C261.037,192.693,261.466,193.065,261.889,193.444z M260.153,191.957  c-0.448-0.366-0.904-0.723-1.365-1.073C259.249,191.234,259.705,191.591,260.153,191.957z M258.444,190.621  c-0.585-0.435-1.178-0.859-1.783-1.269C257.266,189.761,257.86,190.185,258.444,190.621z M256.489,189.239  c-0.535-0.359-1.078-0.707-1.628-1.045C255.411,188.533,255.954,188.88,256.489,189.239z M254.337,187.88  c-0.455-0.272-0.914-0.536-1.379-0.794C253.423,187.344,253.882,187.608,254.337,187.88z M227.287,277.977  c0.746,0.034,1.495,0.057,2.249,0.057c0.758,0,1.511-0.023,2.261-0.057c-0.749,0.035-1.501,0.058-2.258,0.058  C228.784,278.035,228.034,278.012,227.287,277.977z M212.039,229.536c0-9.648,7.85-17.498,17.498-17.498  c9.649,0,17.499,7.85,17.499,17.498c0,9.649-7.85,17.499-17.499,17.499C219.888,247.035,212.039,239.185,212.039,229.536z   M227.212,181.097c0.772-0.037,1.547-0.062,2.328-0.062c0.783,0,1.56,0.025,2.333,0.062c-0.775-0.037-1.553-0.059-2.337-0.059  C228.757,181.038,227.983,181.06,227.212,181.097z M232.301,181.122c0.638,0.036,1.273,0.085,1.905,0.145  C233.574,181.207,232.939,181.158,232.301,181.122z M234.67,181.312c1.52,0.161,3.018,0.391,4.493,0.689  C237.689,181.703,236.19,181.473,234.67,181.312z M239.544,182.082c0.641,0.135,1.277,0.282,1.908,0.441  C240.821,182.363,240.184,182.217,239.544,182.082z M237.579,96.08c0.879,0.052,1.757,0.108,2.632,0.178  C239.337,96.188,238.458,96.132,237.579,96.08z M241.317,96.356c0.822,0.072,1.642,0.147,2.459,0.234  C242.959,96.502,242.138,96.428,241.317,96.356z M213.79,145.045h1.25v38.2c0.73-0.228,1.47-0.433,2.215-0.627  c-3.74,0.98-7.304,2.396-10.637,4.19c0.148-0.08,0.293-0.165,0.442-0.243l-27.02-27.03l0.89-0.88c5.66-5.66,5.66-14.85,0-20.51  c-5.67-5.66-14.85-5.66-20.51,0l-0.89,0.89l-13.687-13.687c19.379-15.598,43.178-25.911,69.197-28.729v19.426h-1.25  c-8.01,0-14.5,6.49-14.5,14.5C199.29,138.545,205.78,145.045,213.79,145.045z M215.264,96.594c0.863-0.092,1.73-0.172,2.598-0.247  C216.994,96.422,216.127,96.501,215.264,96.594z M218.841,96.259c0.921-0.073,1.845-0.133,2.771-0.187  C220.686,96.126,219.762,96.186,218.841,96.259z M226.751,181.124c-0.62,0.035-1.237,0.083-1.85,0.141  C225.514,181.206,226.131,181.159,226.751,181.124z M224.382,181.315c-1.497,0.159-2.975,0.386-4.428,0.678  C221.407,181.701,222.884,181.474,224.382,181.315z M219.451,182.1c-0.586,0.125-1.168,0.259-1.747,0.404  C218.283,182.359,218.865,182.224,219.451,182.1z M193.794,196.796c0.962-1.05,1.969-2.056,3.019-3.018  C195.763,194.74,194.755,195.747,193.794,196.796z M196.837,265.318c-1.064-0.974-2.085-1.994-3.059-3.058  C194.752,263.324,195.773,264.344,196.837,265.318z M206.182,187.048c-0.51,0.282-1.015,0.572-1.515,0.872  C205.167,187.62,205.672,187.329,206.182,187.048z M204.251,188.17c-0.6,0.368-1.193,0.746-1.775,1.139  C203.058,188.916,203.651,188.538,204.251,188.17z M202.433,189.337c-0.616,0.417-1.222,0.849-1.818,1.294  C201.211,190.186,201.816,189.754,202.433,189.337z M200.315,190.86c-0.471,0.356-0.935,0.721-1.392,1.094  C199.381,191.582,199.845,191.217,200.315,190.86z M198.461,192.338c-0.416,0.348-0.826,0.704-1.23,1.065  C197.635,193.042,198.045,192.687,198.461,192.338z M138.15,180.925c2.83,2.83,6.54,4.25,10.25,4.25c3.71,0,7.42-1.42,10.25-4.25  l0.88-0.88l27.03,27.03c0.067-0.127,0.14-0.251,0.208-0.378c-1.758,3.279-3.15,6.782-4.121,10.456  c0.187-0.712,0.385-1.419,0.603-2.118h-38.21v-1.25c0-8.01-6.49-14.5-14.5-14.5s-14.5,6.49-14.5,14.5v1.25H96.621  c2.819-26.014,13.129-49.81,28.723-69.186l13.686,13.686l-0.88,0.88C132.48,166.085,132.48,175.265,138.15,180.925z   M138.093,132.088c0.664-0.623,1.332-1.242,2.009-1.852C139.425,130.845,138.757,131.464,138.093,132.088z M140.795,129.619  c0.651-0.579,1.306-1.153,1.969-1.719C142.102,128.466,141.447,129.041,140.795,129.619z M143.43,127.337  c0.707-0.596,1.419-1.186,2.138-1.767C144.849,126.151,144.137,126.741,143.43,127.337z M193.356,197.286  c-0.329,0.369-0.653,0.742-0.971,1.121C192.703,198.028,193.027,197.655,193.356,197.286z M191.906,198.986  c-0.314,0.386-0.62,0.778-0.922,1.173C191.286,199.763,191.592,199.371,191.906,198.986z M190.587,200.677  c-0.415,0.559-0.82,1.126-1.212,1.703C189.766,201.803,190.172,201.236,190.587,200.677z M189.131,202.753  c-0.312,0.468-0.616,0.941-0.912,1.421C188.515,203.694,188.82,203.221,189.131,202.753z M187.842,204.802  c-0.25,0.419-0.493,0.842-0.731,1.269C187.349,205.644,187.593,205.221,187.842,204.802z M182.468,217.862  c-0.115,0.465-0.223,0.933-0.324,1.402C182.245,218.794,182.353,218.327,182.468,217.862z M181.975,220.055  c-0.12,0.604-0.229,1.211-0.326,1.823C181.746,221.266,181.855,220.659,181.975,220.055z M181.539,222.624  c-0.078,0.54-0.148,1.083-0.208,1.629C181.391,223.707,181.462,223.165,181.539,222.624z M181.25,225.098  c-0.043,0.474-0.079,0.95-0.109,1.428C181.171,226.048,181.207,225.572,181.25,225.098z M181.094,227.339  c-0.029,0.65-0.047,1.304-0.05,1.96C181.048,228.643,181.065,227.989,181.094,227.339z M116.04,244.035v1.25  c0,8.01,6.49,14.5,14.5,14.5s14.5-6.49,14.5-14.5v-1.25h38.21c-0.009-0.029-0.017-0.059-0.026-0.089  c0.9,2.885,2.07,5.651,3.467,8.278c-0.039-0.074-0.082-0.146-0.121-0.22l-27.03,27.03l-0.89-0.89c-5.66-5.66-14.84-5.66-20.5,0  c-5.67,5.66-5.67,14.85,0,20.51l0.88,0.88l-13.683,13.693c-15.597-19.378-25.908-43.176-28.727-69.193H116.04z M96.56,243.508  c-0.047-0.446-0.086-0.895-0.128-1.343C96.474,242.613,96.513,243.062,96.56,243.508z M96.236,239.964  c-0.026-0.339-0.045-0.68-0.069-1.02C96.191,239.284,96.21,239.625,96.236,239.964z M96.011,236.487  c-0.017-0.331-0.025-0.664-0.04-0.996C95.985,235.823,95.994,236.156,96.011,236.487z M95.876,233.008  c-0.009-0.364-0.008-0.731-0.015-1.096C95.868,232.277,95.867,232.644,95.876,233.008z M95.862,227.117  c0.006-0.35,0.005-0.702,0.014-1.052C95.867,226.415,95.868,226.767,95.862,227.117z M95.972,223.543  c0.014-0.318,0.022-0.637,0.038-0.954C95.995,222.906,95.986,223.225,95.972,223.543z M96.169,220.094  c0.023-0.326,0.041-0.654,0.066-0.98C96.21,219.44,96.192,219.768,96.169,220.094z M96.435,216.876  c0.041-0.434,0.079-0.87,0.124-1.303C96.513,216.006,96.476,216.442,96.435,216.876z M181.045,229.779  c0.003,0.653,0.021,1.303,0.05,1.951C181.065,231.082,181.048,230.432,181.045,229.779z M181.142,232.552  c0.029,0.473,0.065,0.943,0.108,1.412C181.207,233.495,181.171,233.025,181.142,232.552z M181.333,234.825  c0.058,0.531,0.127,1.059,0.202,1.585C181.459,235.884,181.39,235.356,181.333,234.825z M181.661,237.264  c0.094,0.583,0.197,1.164,0.312,1.74C181.859,238.428,181.755,237.847,181.661,237.264z M182.149,239.832  c0.098,0.453,0.202,0.904,0.313,1.353C182.351,240.736,182.247,240.285,182.149,239.832z M182.652,241.936  c0.176,0.665,0.36,1.326,0.563,1.979C183.013,243.262,182.827,242.601,182.652,241.936z M193.392,261.828  c-0.347-0.388-0.689-0.782-1.023-1.181C192.703,261.046,193.045,261.439,193.392,261.828z M191.92,260.105  c-0.321-0.395-0.635-0.795-0.943-1.2C191.286,259.309,191.599,259.71,191.92,260.105z M190.588,258.397  c-0.41-0.552-0.81-1.112-1.197-1.682C189.778,257.285,190.178,257.845,190.588,258.397z M189.039,256.175  c-0.264-0.401-0.525-0.803-0.778-1.212C188.514,255.372,188.774,255.775,189.039,256.175z M187.764,254.135  c-0.187-0.317-0.371-0.636-0.551-0.957C187.394,253.499,187.577,253.818,187.764,254.135z M159.54,320.045l0.88,0.88  c2.83,2.83,6.54,4.25,10.25,4.25s7.43-1.42,10.26-4.25c5.66-5.66,5.66-14.84,0-20.51l-0.89-0.88l27.03-27.02  c-0.171-0.09-0.338-0.188-0.509-0.28c3.326,1.797,6.885,3.214,10.618,4.198c-0.719-0.189-1.434-0.388-2.139-0.608v38.21h-1.25  c-8.01,0-14.5,6.49-14.5,14.5c0,8,6.49,14.5,14.5,14.5h1.25v19.417c-26.014-2.818-49.81-13.127-69.187-28.721L159.54,320.045z   M145.579,333.511c-0.726-0.587-1.445-1.181-2.158-1.783C144.135,332.329,144.853,332.924,145.579,333.511z M142.787,331.191  c-0.684-0.584-1.361-1.177-2.032-1.774C141.427,330.014,142.103,330.607,142.787,331.191z M140.131,328.863  c-0.714-0.643-1.419-1.295-2.118-1.953C138.713,327.568,139.417,328.22,140.131,328.863z M197.182,265.626  c0.431,0.387,0.869,0.767,1.314,1.139C198.051,266.393,197.613,266.013,197.182,265.626z M198.896,267.096  c0.485,0.397,0.978,0.784,1.478,1.162C199.873,267.88,199.381,267.492,198.896,267.096z M200.596,268.428  c1.191,0.889,2.426,1.723,3.697,2.502C203.022,270.151,201.788,269.318,200.596,268.428z M204.598,271.113  c0.548,0.33,1.103,0.65,1.665,0.959C205.702,271.763,205.146,271.443,204.598,271.113z M226.619,277.939  c-0.535-0.032-1.067-0.073-1.596-0.122C225.552,277.866,226.084,277.907,226.619,277.939z M224.303,277.748  c-0.623-0.067-1.242-0.146-1.858-0.237C223.061,277.602,223.68,277.681,224.303,277.748z M222.099,277.464  c-0.697-0.108-1.387-0.234-2.074-0.371C220.712,277.229,221.402,277.356,222.099,277.464z M219.32,276.942  c-0.502-0.108-1.001-0.223-1.498-0.347C218.318,276.719,218.818,276.834,219.32,276.942z M219.544,362.868  c-0.11-0.008-0.22-0.014-0.33-0.022C219.324,362.854,219.434,362.86,219.544,362.868z M216.546,362.608  c-0.289-0.028-0.58-0.053-0.868-0.083C215.967,362.556,216.257,362.58,216.546,362.608z M245.29,314.035h-1.25v-38.21  c-0.725,0.226-1.46,0.43-2.199,0.624c3.786-0.994,7.394-2.431,10.761-4.26c-0.198,0.108-0.392,0.221-0.592,0.326l27.02,27.02  l-0.88,0.88c-5.67,5.67-5.67,14.85,0,20.51c2.83,2.83,6.54,4.25,10.25,4.25c3.71,0,7.42-1.42,10.25-4.25l0.88-0.88l13.688,13.688  c-19.375,15.591-43.168,25.9-69.178,28.718v-19.417h1.25c8,0,14.5-6.5,14.5-14.5C259.79,320.525,253.29,314.035,245.29,314.035z   M243.362,362.529c-0.243,0.025-0.487,0.046-0.73,0.07C242.876,362.575,243.12,362.555,243.362,362.529z M239.838,362.848  c-0.063,0.005-0.127,0.008-0.19,0.013C239.711,362.856,239.775,362.853,239.838,362.848z M232.433,277.941  c0.553-0.033,1.103-0.075,1.651-0.126C233.536,277.866,232.986,277.908,232.433,277.941z M234.749,277.75  c0.671-0.072,1.339-0.156,2.002-0.255C236.088,277.595,235.42,277.678,234.749,277.75z M236.94,277.47  c0.723-0.111,1.439-0.242,2.151-0.385C238.379,277.227,237.663,277.359,236.94,277.47z M239.675,276.96  c0.556-0.119,1.11-0.246,1.659-0.384C240.785,276.714,240.232,276.842,239.675,276.96z M261.897,265.622  c-0.436,0.391-0.878,0.775-1.328,1.151C261.019,266.397,261.461,266.013,261.897,265.622z M260.188,267.088  c-0.502,0.411-1.011,0.812-1.529,1.202C259.177,267.9,259.686,267.498,260.188,267.088z M258.493,268.417  c-1.214,0.907-2.472,1.757-3.769,2.549C256.021,270.175,257.279,269.324,258.493,268.417z M254.573,271.057  c-0.621,0.376-1.251,0.739-1.89,1.088C253.322,271.796,253.952,271.433,254.573,271.057z M320.93,278.145  c-5.67-5.66-14.85-5.66-20.51,0l-0.89,0.89l-27.02-27.02c-0.092,0.175-0.192,0.345-0.286,0.519  c1.828-3.379,3.266-6.997,4.254-10.795c-0.2,0.772-0.412,1.54-0.648,2.296h38.2v1.25c0,8.01,6.49,14.5,14.5,14.5  s14.5-6.49,14.5-14.5v-1.25h19.423c-2.818,26.015-13.129,49.812-28.724,69.189l-13.689-13.689l0.89-0.88  C326.59,292.995,326.59,283.805,320.93,278.145z M321.103,326.871c-0.728,0.685-1.463,1.363-2.206,2.032  C319.64,328.235,320.374,327.556,321.103,326.871z M318.436,329.313c-0.74,0.66-1.487,1.313-2.242,1.957  C316.949,330.626,317.695,329.972,318.436,329.313z M315.78,331.62c-0.798,0.675-1.604,1.342-2.418,1.999  C314.176,332.962,314.981,332.295,315.78,331.62z M265.641,261.875c0.377-0.42,0.747-0.847,1.109-1.28  C266.388,261.028,266.018,261.454,265.641,261.875z M267.107,260.163c0.385-0.472,0.762-0.95,1.13-1.437  C267.869,259.213,267.492,259.692,267.107,260.163z M268.435,258.468c0.887-1.189,1.72-2.421,2.497-3.691  C270.154,256.047,269.322,257.279,268.435,258.468z M271.108,254.484c0.337-0.56,0.664-1.127,0.979-1.702  C271.772,253.357,271.446,253.924,271.108,254.484z M276.54,241.492c0.169-0.663,0.323-1.332,0.464-2.006  C276.864,240.161,276.709,240.829,276.54,241.492z M277.067,239.194c0.304-1.5,0.539-3.026,0.701-4.573  C277.605,236.168,277.371,237.693,277.067,239.194z M277.8,234.281c0.067-0.687,0.12-1.378,0.158-2.072  C277.92,232.903,277.867,233.594,277.8,234.281z M277.975,231.925c0.039-0.792,0.061-1.588,0.061-2.389  c0-0.802-0.022-1.6-0.061-2.393c0.039,0.793,0.066,1.589,0.066,2.392C278.04,230.337,278.013,231.133,277.975,231.925z   M328.53,199.285c-8.01,0-14.5,6.49-14.5,14.5v1.25h-38.2c0.238,0.763,0.451,1.537,0.653,2.315  c-1.198-4.612-3.058-8.961-5.475-12.935c0.528,0.867,1.037,1.748,1.512,2.65l27.02-27.02l0.88,0.88c2.83,2.83,6.54,4.25,10.25,4.25  s7.42-1.42,10.26-4.25c5.66-5.66,5.66-14.84,0-20.51l-0.89-0.88l13.693-13.683c15.593,19.376,25.902,43.171,28.72,69.183H343.03  v-1.25C343.03,205.775,336.54,199.285,328.53,199.285z M277.959,226.87c-0.038-0.7-0.092-1.396-0.159-2.088  C277.867,225.474,277.92,226.17,277.959,226.87z M277.768,224.458c-0.162-1.554-0.398-3.086-0.704-4.592  C277.37,221.372,277.605,222.904,277.768,224.458z M277.01,219.609c-0.144-0.69-0.302-1.376-0.476-2.055  C276.707,218.234,276.866,218.919,277.01,219.609z M265.577,197.124c0.418,0.465,0.828,0.937,1.228,1.418  C266.405,198.061,265.995,197.589,265.577,197.124z M267.061,198.851c0.443,0.54,0.876,1.088,1.295,1.647  C267.937,199.939,267.504,199.391,267.061,198.851z M268.397,200.551c0.927,1.239,1.795,2.525,2.603,3.851  C270.193,203.075,269.324,201.79,268.397,200.551z M313.371,125.462c0.813,0.656,1.617,1.321,2.414,1.995  C314.988,126.783,314.184,126.117,313.371,125.462z M316.203,127.81c0.766,0.653,1.523,1.315,2.274,1.985  C317.726,129.126,316.969,128.463,316.203,127.81z M318.886,130.159c0.805,0.724,1.601,1.458,2.388,2.202  C320.487,131.617,319.691,130.883,318.886,130.159z M351.789,119.284c0.724,0.802,1.443,1.609,2.152,2.424  C353.233,120.892,352.513,120.086,351.789,119.284z M346.426,113.618c0.735,0.741,1.467,1.486,2.188,2.24  C347.893,115.103,347.161,114.359,346.426,113.618z M349.263,116.55c0.679,0.718,1.354,1.439,2.02,2.169  C350.617,117.989,349.941,117.268,349.263,116.55z M345.107,112.307c-0.606-0.597-1.211-1.195-1.826-1.783  C343.897,111.112,344.502,111.71,345.107,112.307z M339.175,106.739c-0.51-0.456-1.02-0.913-1.536-1.363  C338.155,105.826,338.665,106.283,339.175,106.739z M341.956,109.283c-0.483-0.452-0.964-0.906-1.453-1.352  C340.992,108.377,341.473,108.831,341.956,109.283z M326.489,137.558c-1.629-1.716-3.303-3.389-5.019-5.016  C323.186,134.17,324.86,135.842,326.489,137.558z M333.239,145.24c-0.425-0.521-0.854-1.039-1.286-1.554  C332.385,144.201,332.814,144.718,333.239,145.24z M331.063,142.634c-0.489-0.571-0.985-1.135-1.484-1.698  C330.078,141.499,330.574,142.063,331.063,142.634z M328.81,140.07c-0.61-0.676-1.228-1.343-1.851-2.006  C327.582,138.726,328.2,139.394,328.81,140.07z M239.154,65.119c0.732,0.042,1.463,0.088,2.193,0.139  C240.617,65.207,239.886,65.161,239.154,65.119z M231.667,64.858c0.56,0.007,1.12,0.009,1.678,0.021  C232.788,64.867,232.227,64.865,231.667,64.858z M235.312,64.943c0.682,0.023,1.364,0.046,2.044,0.078  C236.676,64.989,235.993,64.967,235.312,64.943z M219.879,65.122c-0.705,0.041-1.409,0.084-2.112,0.134  C218.47,65.206,219.174,65.162,219.879,65.122z M227.368,64.859c-0.543,0.007-1.087,0.008-1.629,0.021  C226.28,64.867,226.825,64.865,227.368,64.859z M223.722,64.945c-0.661,0.023-1.322,0.045-1.981,0.075  C222.4,64.99,223.061,64.968,223.722,64.945z M137.539,132.603c-1.686,1.601-3.331,3.245-4.931,4.931  C134.208,135.849,135.853,134.204,137.539,132.603z M125.608,145.521c0.556-0.686,1.118-1.366,1.687-2.041  C126.726,144.155,126.163,144.835,125.608,145.521z M127.923,142.737c0.545-0.637,1.097-1.267,1.653-1.893  C129.02,141.471,128.468,142.1,127.923,142.737z M130.247,140.088c0.592-0.656,1.192-1.304,1.796-1.948  C131.439,138.784,130.839,139.432,130.247,140.088z M115.796,110.52c-0.58,0.555-1.151,1.12-1.723,1.683  C114.645,111.64,115.215,111.075,115.796,110.52z M121.339,105.461c-0.411,0.359-0.816,0.724-1.224,1.086  C120.522,106.184,120.928,105.819,121.339,105.461z M118.548,107.951c-0.459,0.42-0.911,0.847-1.366,1.272  C117.636,108.798,118.088,108.371,118.548,107.951z M112.268,114.006c-0.588,0.597-1.177,1.192-1.756,1.798  C111.091,115.199,111.68,114.603,112.268,114.006z M109.287,117.113c-0.451,0.482-0.905,0.963-1.351,1.451  C108.382,118.076,108.835,117.595,109.287,117.113z M106.609,120.045c-0.391,0.439-0.784,0.877-1.171,1.32  C105.824,120.921,106.218,120.484,106.609,120.045z M64.884,225.447c-0.033,1.359-0.052,2.722-0.052,4.089  c0,1.366,0.019,2.727,0.052,4.085c-0.033-1.358-0.053-2.719-0.053-4.086C64.83,228.167,64.851,226.806,64.884,225.447z   M65.285,217.311c-0.079,1.067-0.146,2.137-0.204,3.209C65.139,219.448,65.207,218.378,65.285,217.311z M65.034,221.382  c-0.055,1.118-0.096,2.239-0.128,3.362C64.938,223.62,64.98,222.499,65.034,221.382z M65.082,238.564  c0.058,1.064,0.125,2.127,0.203,3.186C65.207,240.69,65.14,239.628,65.082,238.564z M64.907,234.339  c0.032,1.117,0.073,2.233,0.127,3.344C64.98,236.572,64.938,235.457,64.907,234.339z M106.33,338.713  c-0.268-0.302-0.539-0.602-0.805-0.907C105.791,338.11,106.062,338.411,106.33,338.713z M111.628,344.411  c-0.357-0.367-0.719-0.729-1.073-1.099C110.909,343.682,111.271,344.044,111.628,344.411z M108.916,341.561  c-0.304-0.327-0.612-0.651-0.913-0.98C108.305,340.91,108.612,341.234,108.916,341.561z M114.141,346.936  c0.556,0.547,1.11,1.096,1.674,1.634C115.251,348.031,114.697,347.482,114.141,346.936z M119.685,352.144  c0.607,0.544,1.214,1.088,1.829,1.623C120.9,353.232,120.292,352.688,119.685,352.144z M116.904,349.59  c0.571,0.536,1.142,1.074,1.721,1.602C118.045,350.664,117.475,350.127,116.904,349.59z M132.612,321.543  c1.608,1.693,3.26,3.344,4.953,4.951C135.872,324.886,134.22,323.236,132.612,321.543z M125.838,313.837  c0.422,0.518,0.848,1.032,1.278,1.544C126.687,314.869,126.26,314.355,125.838,313.837z M128.026,316.456  c0.474,0.552,0.954,1.099,1.437,1.644C128.98,317.555,128.5,317.009,128.026,316.456z M130.285,319.026  c0.572,0.634,1.153,1.259,1.737,1.882C131.438,320.286,130.857,319.66,130.285,319.026z M225.332,394.188  c1.397,0.035,2.799,0.053,4.205,0.053c1.41,0,2.815-0.018,4.216-0.053c-1.4,0.035-2.803,0.057-4.213,0.057  C228.132,394.245,226.73,394.223,225.332,394.188z M217.151,393.777c1.2,0.09,2.404,0.166,3.611,0.229  C219.555,393.943,218.351,393.867,217.151,393.777z M221.248,394.033c1.298,0.065,2.599,0.115,3.905,0.149  C223.847,394.148,222.545,394.097,221.248,394.033z M238.27,394.009c1.234-0.065,2.465-0.143,3.692-0.235  C240.735,393.866,239.504,393.945,238.27,394.009z M233.881,394.183c1.326-0.035,2.649-0.085,3.967-0.151  C236.53,394.098,235.208,394.149,233.881,394.183z M321.504,326.498c1.67-1.583,3.299-3.211,4.886-4.878  C324.803,323.288,323.173,324.913,321.504,326.498z M332.999,314.13c-0.248,0.302-0.498,0.603-0.748,0.903  C332.501,314.734,332.751,314.433,332.999,314.13z M330.872,316.663c-0.299,0.347-0.602,0.691-0.905,1.035  C330.27,317.354,330.573,317.011,330.872,316.663z M328.668,319.162c-0.386,0.427-0.779,0.846-1.171,1.268  C327.889,320.009,328.282,319.589,328.668,319.162z M343.14,348.686c2.83-2.7,5.564-5.5,8.198-8.393  C348.703,343.187,345.97,345.987,343.14,348.686z M337.563,353.764c0.679-0.591,1.35-1.19,2.019-1.792  C338.913,352.574,338.242,353.173,337.563,353.764z M340.375,351.261c0.863-0.786,1.718-1.582,2.564-2.387  C342.092,349.679,341.238,350.475,340.375,351.261z M351.637,339.959c0.767-0.847,1.527-1.701,2.276-2.564  C353.163,338.258,352.404,339.112,351.637,339.959z M363.192,233.156c0.032-1.203,0.048-2.41,0.048-3.621  c0-1.21-0.016-2.416-0.048-3.617c0.032,1.202,0.05,2.408,0.05,3.618C363.242,230.746,363.224,231.953,363.192,233.156z   M362.492,243.696c0.075-0.707,0.139-1.418,0.203-2.129C362.631,242.278,362.567,242.989,362.492,243.696z M362.823,240.134  c0.056-0.708,0.099-1.419,0.144-2.13C362.922,238.715,362.878,239.426,362.823,240.134z M363.053,236.643  c0.051-0.973,0.088-1.95,0.118-2.928C363.14,234.693,363.104,235.67,363.053,236.643z M362.493,215.385  c0.073,0.694,0.136,1.392,0.199,2.089C362.629,216.777,362.567,216.079,362.493,215.385z M362.823,218.944  c0.055,0.695,0.097,1.392,0.141,2.09C362.92,220.337,362.878,219.639,362.823,218.944z M363.053,222.432  c0.051,0.959,0.086,1.922,0.116,2.887C363.139,224.354,363.103,223.391,363.053,222.432z M393.966,238.965  c-0.047,0.836-0.099,1.671-0.159,2.504C393.867,240.636,393.918,239.801,393.966,238.965z M393.806,217.591  c0.06,0.841,0.113,1.684,0.161,2.527C393.919,219.275,393.867,218.432,393.806,217.591z M394.048,221.606  c0.039,0.827,0.068,1.657,0.095,2.488C394.115,223.263,394.087,222.433,394.048,221.606z M394.193,225.632  c0.021,0.921,0.029,1.846,0.035,2.771C394.221,227.478,394.214,226.554,394.193,225.632z M394.228,230.68  c-0.006,0.921-0.014,1.841-0.035,2.757C394.214,232.52,394.221,231.6,394.228,230.68z M394.142,234.99  c-0.027,0.824-0.055,1.649-0.094,2.47C394.087,236.638,394.115,235.814,394.142,234.99z" fill="#FFFFFF"/>
<g>
</g>
<g>
</g>
<g>
</g>
<g>
</g>
<g>
</g>
<g>
</g>
<g>
</g>
<g>
</g>
<g>
</g>
<g>
</g>
<g>
</g>
<g>
</g>
<g>
</g>
<g>
</g>
<g>
</g>
</svg>
